Simulation
nRows=27
nColumns=15
endheader
time  TH_x TH_y TH_z SC_y  SC_z  SC_x  AC_y  AC_z  AC_x  GH_y  GH_z  GH_yy  EL_x  PS_y
2.8725  0.000000  0.000000  0.000000  -33.22101476222702  -6.516850927686016  15.708661771409657  48.501989202663545  -25.10678318613686  -6.124628449878602  -18.427420226119242  31.711083283144784  15.627290852719256  14.120328810055138  120.000000
2.92995  0.000000  0.000000  0.000000  -33.3243710702793  -6.269955834779954  17.283846909121213  48.01454415429751  -25.66704749334772  -7.498027898112711  -17.25767857845705  29.405075953750742  17.664532594878043  14.48249805017255  120.000000
2.9874  0.000000  0.000000  0.000000  -33.43680193072695  -6.055686543777558  18.422221402966564  47.7438263142746  -26.041979751548666  -8.39713445882257  -16.117096113899958  27.546166437474042  19.17639604080327  14.925780138412238  120.000000
3.0448500000000003  0.000000  0.000000  0.000000  -33.541314912560104  -5.865042379404262  19.182658899310475  47.644677739873636  -26.26055706572292  -8.899235906416806  -15.053689376890489  26.085918524737785  20.16997964035405  15.40899448020342  120.000000
3.1023  0.000000  0.000000  0.000000  -33.63485195641443  -5.686267766741333  19.65048012109977  47.659785747734894  -26.362410091434235  -9.108486982204676  -14.115439444435223  24.97894881311904  20.727421301047197  15.891053557878122  120.000000
3.15975  0.000000  0.000000  0.000000  -33.718520934329284  -5.516517067386665  19.926068010733527  47.7271809184812  -26.394614543632464  -9.147603857563844  -13.331509164490559  24.183198842097134  20.96402711583574  16.341532082886133  120.000000
3.2172  0.000000  0.000000  0.000000  -33.79121741345668  -5.3601552468541405  20.103764073110742  47.79321442663608  -26.40072508908685  -9.130410786695796  -12.707924146596115  23.652923084454375  21.001312159555184  16.749660538925433  120.000000
3.2746500000000003  0.000000  0.000000  0.000000  -33.852373868527806  -5.222098354475199  20.24114854970031  47.83625210678018  -26.404261550799486  -9.116621902646196  -12.237721580747255  23.334770738443744  20.954501993820553  17.121021052082824  120.000000
3.3321  0.000000  0.000000  0.000000  -33.903042631479885  -5.104689250021697  20.35636694368376  47.86548684909914  -26.408622660563534  -9.110714614881733  -11.896052548019846  23.16786590762421  20.911236691970828  17.47100814787581  120.000000
3.38955  0.000000  0.000000  0.000000  -33.94381120909537  -5.012330033539128  20.45350452184227  47.8937680812835  -26.41254000268052  -9.104708990498722  -11.629943162656415  23.093303953745973  20.90789444687342  17.816552887779917  120.000000
3.447  0.000000  0.000000  0.000000  -33.9746844392922  -4.947912721121709  20.535548963362523  47.92584710672288  -26.416705977692423  -9.09763183020398  -11.378161992185705  23.06230208314198  20.939989435848155  18.169629292844075  120.000000
3.5044500000000003  0.000000  0.000000  0.000000  -33.99952931260247  -4.9048331980026605  20.597880040330235  47.96727819966801  -26.416462374863382  -9.078722803180517  -11.104914526570823  23.03785028805111  20.99382201945421  18.533651072448617  120.000000
3.5619  0.000000  0.000000  0.000000  -34.02603834896667  -4.86306434384202  20.625208068467767  48.032181953528685  -26.40170695456953  -9.01512010699608  -10.814297340714415  22.995863731574676  21.068765537933132  18.904984921774908  120.000000
3.61935  0.000000  0.000000  0.000000  -34.062299105179015  -4.800811724378987  20.599189397894303  48.13512612324472  -26.35672323992639  -8.872523396324068  -10.531677120784675  22.923027136668125  21.172354825572274  19.278411165955344  120.000000
3.6768  0.000000  0.000000  0.000000  -34.11299534529459  -4.706987106620987  20.50115744254712  48.28630210874442  -26.256826385567024  -8.632558101494688  -10.281551278553763  22.811908692689766  21.310130864044552  19.65152474552154  120.000000
3.7342500000000003  0.000000  0.000000  0.000000  -34.17917450859517  -4.580477045748584  20.312756269733036  48.49215318681723  -26.07950537749017  -8.285084485240649  -10.084641743576746  22.664453306712836  21.488008241855365  20.02449841975918  120.000000
3.7917  0.000000  0.000000  0.000000  -34.258284879994775  -4.4265893428872864  20.01769202197046  48.756104387046605  -25.815226648955715  -7.820699152444649  -9.960570345763347  22.49660249848545  21.71675236037833  20.398725249804954  120.000000
3.84915  0.000000  0.000000  0.000000  -34.34503395767398  -4.257070316834177  19.601358548121947  49.079666856408544  -25.465543861249817  -7.230787638121128  -9.93161489229108  22.339399019802425  22.017005724805554  20.775744031076297  120.000000
3.9066  0.000000  0.000000  0.000000  -34.43184212772676  -4.08850148451152  19.050931256120602  49.46226875634562  -25.040076764708935  -6.508595552073569  -10.029557954145023  22.239557962396937  22.42638865187856  21.155514587296132  120.000000
3.9640500000000003  0.000000  0.000000  0.000000  -34.510935941938364  -3.9409725355249896  18.35492199500047  49.90125195169492  -24.554009732814418  -5.650426794399352  -10.294449424328425  22.259051892095204  22.99681870001709  21.53549834818274  120.000000
4.0215  0.000000  0.000000  0.000000  -34.57827002208487  -3.8345830651845336  17.49973244918035  50.390978477515915  -24.02460589475886  -4.65402684209975  -10.76139141186242  22.470866917407143  23.77601860863675  21.910285689825674  120.000000
4.07895  0.000000  0.000000  0.000000  -34.633558124720516  -3.7888442737895907  16.46574827194125  50.92726793283148  -23.466315397923598  -3.513223356268465  -11.42968951576003  22.948133091952542  24.769322531511296  22.272416433250296  120.000000
4.1364  0.000000  0.000000  0.000000  -34.67533882626977  -3.8263925414120807  15.230329690713244  51.51406238582681  -22.886716365268704  -2.2152772814950237  -12.234780463446157  23.748463516551087  25.90204411171145  22.609988988693544  120.000000
4.19385  0.000000  0.000000  0.000000  -34.70191389321268  -3.9651661251411063  13.780132846810744  52.161538789201366  -22.286764596197624  -0.7478625508000304  -13.057684411029246  24.901153769254496  27.02353326347862  22.90630501137176  120.000000
4.2513000000000005  0.000000  0.000000  0.000000  -34.7149540999578  -4.208279145063249  12.123295776412002  52.88251281423936  -21.658958652428073  0.8948504507641856  -13.764790089735879  26.402948024631876  27.94802420917976  23.14074562147303  120.000000
4.30875  0.000000  0.000000  0.000000  -34.721490903591125  -4.536706643406597  10.295540270970717  53.6969360642074  -20.982700563614525  2.7112055168142075  -14.24543068369461  28.220181433411046  28.503366601945935  23.296125340891802  120.000000
4.3662  0.000000  0.000000  0.000000  -34.742873126909345  -4.901598408231939  8.36561995246574  54.632625196713136  -20.222884252245677  4.690879071464228  -14.43355407008456  30.293411285884183  28.566326371433163  23.37038644532399  120.000000
